<svg height="512pt" viewBox="0 -16 512.00102 512" width="512pt" xmlns="http://www.w3.org/2000/svg"><g fill-rule="evenodd"><path d="m220.859375 42.003906h219.140625c8.800781 0 16-7.203125 16-16 0-8.800781-7.199219-16-16-16h-368c-8.800781 0-16 7.199219-16 16 0 8.796875 7.199219 16 16 16zm0 0" fill="#f0f0f0"/><path d="m80.285156 137.289062 41.332032-95.285156h-49.617188l-62 95.285156v17.570313c0 19.328125 15.8125 35.140625 35.144531 35.140625 19.328125 0 35.140625-15.8125 35.140625-35.140625zm0 0" fill="#6a87c1"/><path d="m121.617188 42.003906-41.332032 95.285156v17.570313c0 19.328125 15.816406 35.140625 35.144532 35.140625 19.328124 0 35.140624-15.8125 35.140624-35.140625v-17.570313l20.667969-95.285156zm0 0" fill="#ffc967"/><path d="m171.238281 42.003906-20.667969 95.285156v17.570313c0 19.328125 15.816407 35.140625 35.144532 35.140625s35.144531-15.8125 35.144531-35.140625v-112.855469zm0 0" fill="#6a87c1"/><path d="m220.859375 42.003906v112.855469c0 19.328125 15.8125 35.140625 35.140625 35.140625s35.144531-15.8125 35.144531-35.140625v-112.855469zm0 0" fill="#ffc967"/><path d="m291.144531 42.003906v112.855469c0 19.328125 15.8125 35.140625 35.140625 35.140625s35.144532-15.8125 35.144532-35.140625v-17.570313l-20.667969-95.285156zm0 0" fill="#6a87c1"/><path d="m340.761719 42.003906 20.667969 95.285156v17.570313c0 19.328125 15.8125 35.140625 35.140624 35.140625 19.328126 0 35.144532-15.8125 35.144532-35.140625v-17.570313l-41.332032-95.285156zm0 0" fill="#ffc967"/><path d="m390.382812 42.003906 41.332032 95.285156v17.570313c0 19.328125 15.8125 35.140625 35.140625 35.140625s35.144531-15.8125 35.144531-35.140625v-17.570313l-62-95.285156zm0 0" fill="#6a87c1"/><path d="m431.714844 154.859375c0 19.328125-15.8125 35.140625-35.144532 35.140625-19.328124 0-35.140624-15.8125-35.140624-35.140625 0 19.328125-15.816407 35.140625-35.144532 35.140625s-35.140625-15.8125-35.140625-35.140625c0 19.328125-15.816406 35.140625-35.144531 35.140625s-35.140625-15.8125-35.140625-35.140625c0 19.328125-15.816406 35.140625-35.144531 35.140625s-35.144532-15.8125-35.144532-35.140625c0 19.328125-15.8125 35.140625-35.140624 35.140625-19.328126 0-35.144532-15.8125-35.144532-35.140625 0 19.328125-15.8125 35.140625-35.140625 35.140625v280h421.710938v-280c-19.328125 0-35.140625-15.8125-35.140625-35.140625zm-216.570313 74.890625v240h-140v-240zm163.113281 97.011719h16c14.300782 0 26 11.699219 26 26 0 14.296875-11.699218 26-26 26h-16c0 28.597656-23.402343 51.996093-52 51.996093-28.601562 0-52-23.398437-52-51.996093v-52zm0 0" fill="#f0f0f0"/><path d="m420.257812 352.761719c0-14.300781-11.699218-26-26-26h-16v52h16c14.300782 0 26-11.703125 26-26zm0 0" fill="#f0f0f0"/><path d="m378.257812 378.761719v-52h-104v52c0 28.597656 23.398438 51.996093 52 51.996093 28.597657 0 52-23.398437 52-51.996093zm0 0" fill="#c1734c"/><path d="m215.144531 469.746094v-239.996094h-140v239.996094zm0 0" fill="#c1734c"/></g><path d="m274.257812 420.757812c-5.519531 0-10 4.480469-10 10 0 5.523438 4.480469 10 10 10h104c5.519532 0 10-4.476562 10-10 0-5.519531-4.480468-10-10-10h-6.445312c8.054688-8.730468 13.632812-19.765624 15.625-32h6.820312c19.851563 0 36-16.148437 36-36 0-19.851562-16.148437-36-36-36h-120c-5.523437 0-10 4.480469-10 10v52c0 16.191407 6.246094 30.945313 16.445313 42zm136-68c0 8.824219-7.179687 16-16 16h-6v-32h6c8.820313 0 16 7.179688 16 16zm-126 26v-42h84v42c0 23.160157-18.839843 42-42 42-23.160156 0-42-18.839843-42-42zm0 0"/><path d="m317.035156 263.195312c-2.097656 5.109376.347656 10.953126 5.457032 13.046876 1.242187.511718 2.527343.75 3.789062.75 3.9375 0 7.671875-2.339844 9.257812-6.207032 4.210938-10.269531 2.007813-18.648437.394532-24.769531-1.453125-5.53125-2.078125-8.375-.394532-12.476563 2.09375-5.109374-.351562-10.949218-5.460937-13.046874-5.109375-2.09375-10.949219.351562-13.042969 5.460937-4.296875 10.480469-2.070312 18.957031-.441406 25.148437 1.425781 5.417969 2.039062 8.195313.441406 12.09375zm0 0"/><path d="m277.03125 283.195312c-2.09375 5.113282.351562 10.953126 5.460938 13.046876 1.242187.511718 2.523437.75 3.789062.75 3.9375 0 7.667969-2.339844 9.253906-6.207032 4.210938-10.265625 2.007813-18.648437.398438-24.769531-1.453125-5.53125-2.078125-8.371094-.394532-12.476563 2.09375-5.109374-.351562-10.949218-5.460937-13.042968-5.109375-2.097656-10.953125.347656-13.046875 5.457031-4.292969 10.480469-2.066406 18.957031-.4375 25.148437 1.421875 5.417969 2.035156 8.199219.4375 12.09375zm0 0"/><path d="m357.035156 283.195312c-2.097656 5.113282.347656 10.953126 5.457032 13.046876 1.242187.511718 2.527343.75 3.792968.75 3.9375 0 7.667969-2.339844 9.253906-6.207032 4.210938-10.265625 2.007813-18.648437.398438-24.769531-1.457031-5.53125-2.078125-8.371094-.398438-12.476563 2.097657-5.109374-.347656-10.949218-5.457031-13.042968-5.113281-2.097656-10.953125.347656-13.046875 5.457031-4.296875 10.480469-2.066406 18.957031-.441406 25.148437 1.425781 5.417969 2.039062 8.199219.441406 12.09375zm0 0"/><path d="m512 154.859375v-17.570313c0-.097656-.011719-.191406-.015625-.285156-.003906-.214844-.011719-.429687-.03125-.644531-.011719-.136719-.03125-.265625-.050781-.398437-.023438-.191407-.050782-.382813-.085938-.574219-.03125-.148438-.066406-.296875-.101562-.445313-.042969-.167968-.082032-.332031-.128906-.496094-.050782-.167968-.109376-.332031-.167969-.496093-.050781-.140625-.097657-.28125-.152344-.421875-.074219-.183594-.160156-.359375-.242187-.535156-.058594-.117188-.109376-.238282-.171876-.355469-.101562-.191407-.210937-.371094-.324218-.554688-.050782-.082031-.089844-.167969-.144532-.25l-55.160156-84.773437c6.523438-4.726563 10.777344-12.402344 10.777344-21.054688 0-14.339844-11.664062-26.003906-26-26.003906h-268c-5.523438 0-10 4.480469-10 10 0 5.523438 4.476562 10 10 10h268c3.253906 0 6 2.75 6 6.003906 0 3.25-2.746094 6-6 6h-49.632812c-.046876 0-.09375-.003906-.136719 0h-49.507813c-.035156 0-.070312-.003906-.105468 0h-169.238282c-.03125 0-.058594 0-.085937 0h-49.542969c-.027344 0-.058594 0-.085938 0h-49.664062c-3.253906 0-6-2.75-6-6 0-3.253906 2.746094-6.003906 6-6.003906h31.035156c5.519532 0 10-4.476562 10-10s-4.480468-10-10-10h-31.035156c-14.335938 0-26 11.664062-26 26 0 8.65625 4.253906 16.332031 10.777344 21.058594l-55.160156 84.773437c-.050782.082031-.09375.167969-.144532.25-.113281.183594-.222656.363281-.324218.554688-.0625.117187-.113282.238281-.171876.359375-.082031.175781-.167968.347656-.238281.527344-.058593.144531-.105469.285156-.160156.429687-.054687.164063-.113281.324219-.164063.488281-.046874.167969-.089843.332032-.128906.5-.035156.148438-.070312.292969-.101562.445313-.035156.191406-.0625.382812-.0859378.574219-.0195312.132812-.0390624.261718-.0507812.394531-.0234375.214843-.0273438.429687-.0351562.648437 0 .09375-.0117188.1875-.0117188.285156v17.570313c0 21.453125 15.050781 39.449219 35.144531 44.011719v261.128906h-25.144531c-5.523438 0-10 4.476562-10 10s4.476562 10 10 10h492c5.523438 0 10-4.476562 10-10s-4.476562-10-10-10h-25.140625v-261.128906c20.089844-4.566406 35.140625-22.558594 35.140625-44.011719zm-45.144531 25.140625c-13.863281 0-25.140625-11.277344-25.140625-25.144531v-17.570313c0-.003906 0-.011718 0-.019531 0-.3125-.019532-.625-.050782-.941406 0-.023438 0-.042969-.003906-.066407-.023437-.238281-.066406-.472656-.105468-.710937-.019532-.097656-.027344-.199219-.046876-.292969-.019531-.089844-.046874-.175781-.070312-.261718-.054688-.242188-.113281-.488282-.1875-.722657-.007812-.015625-.011719-.027343-.015625-.042969-.101563-.308593-.214844-.609374-.339844-.90625-.003906-.003906-.003906-.007812-.007812-.015624l-35.269531-81.304688h28.957031l57.425781 88.253906v14.601563c0 13.867187-11.277344 25.144531-25.144531 25.144531zm-376.570313-40.636719 37.894532-87.359375h30.65625l-18.035157 83.164063c-.003906.007812-.003906.015625-.003906.023437-.050781.226563-.082031.453125-.113281.683594-.015625.113281-.039063.230469-.054688.34375-.011718.132812-.015625.269531-.023437.402344-.015625.210937-.03125.421875-.03125.632812 0 .011719-.003907.023438-.003907.035156v17.570313c0 13.863281-11.277343 25.140625-25.140624 25.140625-13.863282 0-25.144532-11.277344-25.144532-25.140625zm70.285156-1.007812 18.730469-86.351563h31.554688v102.855469c0 13.863281-11.277344 25.140625-25.140625 25.140625-13.863282 0-25.144532-11.277344-25.144532-25.140625zm70.285157-1.066407v-85.289062h50.285156v102.855469c0 13.863281-11.277344 25.144531-25.140625 25.144531s-25.144531-11.277344-25.144531-25.144531zm70.289062 0v-85.289062h31.554688l18.730469 86.355469v16.5c0 13.863281-11.28125 25.144531-25.144532 25.144531-13.863281 0-25.144531-11.277344-25.144531-25.144531v-17.566407zm70.28125-.035156c0-.210937-.015625-.421875-.03125-.636718-.007812-.132813-.011719-.265626-.023437-.398438-.015625-.117188-.039063-.238281-.054688-.355469-.03125-.222656-.0625-.449219-.109375-.667969-.003906-.007812-.003906-.019531-.003906-.027343l-18.039063-83.164063h30.65625l37.894532 87.359375v15.496094c0 13.863281-11.28125 25.144531-25.144532 25.144531-13.863281 0-25.144531-11.28125-25.144531-25.144531v-17.570313c.003907-.015624 0-.023437 0-.035156zm-351.425781 17.605469v-14.605469l57.425781-88.25h28.957031l-35.269531 81.304688c-.003906.003906-.003906.011718-.007812.015625-.125.296875-.238281.597656-.339844.90625-.003906.011719-.007813.027343-.015625.039062-.074219.238281-.132812.480469-.1875.726563-.023438.085937-.050781.171875-.070312.257812-.019532.097656-.027344.199219-.046876.296875-.039062.238281-.082031.472657-.105468.710938-.003906.019531-.003906.042969-.003906.066406-.03125.3125-.046876.628906-.050782.941406v.019531 17.570313c0 13.863281-11.277344 25.144531-25.144531 25.144531-13.863281-.003906-25.140625-11.28125-25.140625-25.144531zm35.144531 44.011719c10.066407-2.289063 18.867188-7.941406 25.140625-15.722656 8.28125 10.265624 20.957032 16.851562 35.144532 16.851562s26.859374-6.585938 35.144531-16.851562c8.28125 10.265624 20.953125 16.851562 35.140625 16.851562s26.859375-6.585938 35.144531-16.851562c8.277344 10.265624 20.953125 16.851562 35.140625 16.851562s26.863281-6.585938 35.144531-16.851562c8.28125 10.265624 20.953125 16.851562 35.140625 16.851562s26.863282-6.585938 35.144532-16.851562c8.28125 10.265624 20.953124 16.851562 35.140624 16.851562s26.863282-6.585938 35.144532-16.851562c6.273437 7.777343 15.074218 13.433593 25.144531 15.722656v261.128906h-231.714844v-230.25c0-5.523438-4.476562-10-10-10h-140c-5.523437 0-10 4.476562-10 10v230.25h-10zm150 117.886718h-11.035156c-5.523437 0-10 4.480469-10 10 0 5.523438 4.476563 10 10 10h11.035156v122.988282h-120v-220h120zm0 0"/><path d="m165.144531 336.761719h.234375c5.523438 0 10-4.480469 10-10 0-5.523438-4.476562-10-10-10h-.234375c-5.523437 0-10 4.476562-10 10 0 5.519531 4.476563 10 10 10zm0 0"/><path d="m131.765625 20h.269531c5.523438 0 10-4.476562 10-10s-4.476562-10-10-10h-.269531c-5.523437 0-10 4.476562-10 10s4.476563 10 10 10zm0 0"/></svg>